<?xml version="1.0" standalone="no"?><!DOCTYPE svg PUBLIC "-//W3C//DTD SVG 1.1//EN" "http://www.w3.org/Graphics/SVG/1.1/DTD/svg11.dtd"><svg xmlns="http://www.w3.org/2000/svg" viewBox="0 0 650 400" version="1.1"><clipPath id="box"><rect x="0" y="0" width="650" height="400" style="fill:none;stroke:none;" /></clipPath><g clip-path="url(#box)"><rect x="0.00" y="0.00" width="650.00" height="400.00" style="fill:#FFFFFF;stroke:none;" /><path d="M0.00 376.00 L650.00 376.00 M0.00 326.00 L650.00 326.00 M0.00 276.00 L650.00 276.00 M0.00 226.00 L650.00 226.00 M0.00 176.00 L650.00 176.00 M0.00 126.00 L650.00 126.00 M0.00 76.00 L650.00 76.00 M0.00 26.00 L650.00 26.00 M13.00 0.00 L13.00 400.00 M63.00 0.00 L63.00 400.00 M113.00 0.00 L113.00 400.00 M163.00 0.00 L163.00 400.00 M213.00 0.00 L213.00 400.00 M263.00 0.00 L263.00 400.00 M313.00 0.00 L313.00 400.00 M363.00 0.00 L363.00 400.00 M413.00 0.00 L413.00 400.00 M463.00 0.00 L463.00 400.00 M513.00 0.00 L513.00 400.00 M563.00 0.00 L563.00 400.00 M613.00 0.00 L613.00 400.00 " style="fill:none;stroke:#D0D0D0;stroke-width:1;" /><path d="M313.48 0.00 L313.48 400.00 " style="fill:none;stroke:#000000;stroke-width:1;" /><path d="M306.98 426.98 L319.98 426.98 M306.98 376.98 L319.98 376.98 M306.98 326.98 L319.98 326.98 M306.98 276.98 L319.98 276.98 M306.98 226.98 L319.98 226.98 M306.98 176.98 L319.98 176.98 M306.98 126.98 L319.98 126.98 M306.98 76.98 L319.98 76.98 M306.98 26.98 L319.98 26.98 " style="fill:none;stroke:#000000;stroke-width:1;" /><path d="M0.00 226.98 L650.00 226.98 " style="fill:none;stroke:#000000;stroke-width:1;" /><path d="M-36.52 220.48 L-36.52 233.48 M13.48 220.48 L13.48 233.48 M63.48 220.48 L63.48 233.48 M113.48 220.48 L113.48 233.48 M163.48 220.48 L163.48 233.48 M213.48 220.48 L213.48 233.48 M263.48 220.48 L263.48 233.48 M313.48 220.48 L313.48 233.48 M363.48 220.48 L363.48 233.48 M413.48 220.48 L413.48 233.48 M463.48 220.48 L463.48 233.48 M513.48 220.48 L513.48 233.48 M563.48 220.48 L563.48 233.48 M613.48 220.48 L613.48 233.48 " style="fill:none;stroke:#000000;stroke-width:1;" /><text x="321.6050000000001" y="379.48" text-anchor="start" style="font:10px Droid Sans,Trebuchet MS,Arial,Helvetica,sans-serif;stroke:none;fill:#000000">-1.5</text><text x="321.6050000000001" y="329.48" text-anchor="start" style="font:10px Droid Sans,Trebuchet MS,Arial,Helvetica,sans-serif;stroke:none;fill:#000000">-1</text><text x="321.6050000000001" y="279.48" text-anchor="start" style="font:10px Droid Sans,Trebuchet MS,Arial,Helvetica,sans-serif;stroke:none;fill:#000000">-0.5</text><text x="321.6050000000001" y="229.48000000000002" text-anchor="start" style="font:10px Droid Sans,Trebuchet MS,Arial,Helvetica,sans-serif;stroke:none;fill:#000000">0</text><text x="321.6050000000001" y="179.48" text-anchor="start" style="font:10px Droid Sans,Trebuchet MS,Arial,Helvetica,sans-serif;stroke:none;fill:#000000">0.5</text><text x="321.6050000000001" y="129.47999999999996" text-anchor="start" style="font:10px Droid Sans,Trebuchet MS,Arial,Helvetica,sans-serif;stroke:none;fill:#000000">1</text><text x="321.6050000000001" y="79.47999999999998" text-anchor="start" style="font:10px Droid Sans,Trebuchet MS,Arial,Helvetica,sans-serif;stroke:none;fill:#000000">1.5</text><text x="321.6050000000001" y="29.479999999999965" text-anchor="start" style="font:10px Droid Sans,Trebuchet MS,Arial,Helvetica,sans-serif;stroke:none;fill:#000000">2</text><text x="13.48000000000007" y="243.10500000000002" text-anchor="middle" style="font:10px Droid Sans,Trebuchet MS,Arial,Helvetica,sans-serif;stroke:none;fill:#000000">-3</text><text x="63.48000000000007" y="243.10500000000002" text-anchor="middle" style="font:10px Droid Sans,Trebuchet MS,Arial,Helvetica,sans-serif;stroke:none;fill:#000000">-2.5</text><text x="113.48000000000008" y="243.10500000000002" text-anchor="middle" style="font:10px Droid Sans,Trebuchet MS,Arial,Helvetica,sans-serif;stroke:none;fill:#000000">-2</text><text x="163.48000000000008" y="243.10500000000002" text-anchor="middle" style="font:10px Droid Sans,Trebuchet MS,Arial,Helvetica,sans-serif;stroke:none;fill:#000000">-1.5</text><text x="213.48000000000008" y="243.10500000000002" text-anchor="middle" style="font:10px Droid Sans,Trebuchet MS,Arial,Helvetica,sans-serif;stroke:none;fill:#000000">-1</text><text x="263.4800000000001" y="243.10500000000002" text-anchor="middle" style="font:10px Droid Sans,Trebuchet MS,Arial,Helvetica,sans-serif;stroke:none;fill:#000000">-0.5</text><text x="313.4800000000001" y="243.10500000000002" text-anchor="middle" style="font:10px Droid Sans,Trebuchet MS,Arial,Helvetica,sans-serif;stroke:none;fill:#000000">0</text><text x="363.4800000000001" y="243.10500000000002" text-anchor="middle" style="font:10px Droid Sans,Trebuchet MS,Arial,Helvetica,sans-serif;stroke:none;fill:#000000">0.5</text><text x="413.4800000000001" y="243.10500000000002" text-anchor="middle" style="font:10px Droid Sans,Trebuchet MS,Arial,Helvetica,sans-serif;stroke:none;fill:#000000">1</text><text x="463.48" y="243.10500000000002" text-anchor="middle" style="font:10px Droid Sans,Trebuchet MS,Arial,Helvetica,sans-serif;stroke:none;fill:#000000">1.5</text><text x="513.48" y="243.10500000000002" text-anchor="middle" style="font:10px Droid Sans,Trebuchet MS,Arial,Helvetica,sans-serif;stroke:none;fill:#000000">2</text><text x="563.48" y="243.10500000000002" text-anchor="middle" style="font:10px Droid Sans,Trebuchet MS,Arial,Helvetica,sans-serif;stroke:none;fill:#000000">2.5</text><text x="613.48" y="243.10500000000002" text-anchor="middle" style="font:10px Droid Sans,Trebuchet MS,Arial,Helvetica,sans-serif;stroke:none;fill:#000000">3</text><path d="M-10.00 200.00 L-0.25 222.82 L0.75 222.78 L2.75 222.70 L4.75 222.62 L6.75 222.53 L8.75 222.45 L10.75 222.36 L12.75 222.27 L14.75 222.18 L16.75 222.09 L18.75 221.99 L20.75 221.90 L22.75 221.80 L24.75 221.70 L26.75 221.60 L28.75 221.50 L30.75 221.39 L32.75 221.29 L34.75 221.18 L36.75 221.07 L38.75 220.96 L40.75 220.84 L42.75 220.73 L44.75 220.61 L46.75 220.49 L48.75 220.36 L50.75 220.24 L52.75 220.11 L54.75 219.98 L56.75 219.85 L58.75 219.72 L60.75 219.58 L62.75 219.45 L64.75 219.30 L66.75 219.16 L68.75 219.02 L70.75 218.87 L72.75 218.72 L74.75 218.57 L76.75 218.41 L78.75 218.25 L80.75 218.09 L82.75 217.93 L84.75 217.76 L86.75 217.59 L88.75 217.42 L90.75 217.25 L92.75 217.07 L94.75 216.89 L96.75 216.71 L98.75 216.52 L100.75 216.33 L102.75 216.14 L104.75 215.95 L106.75 215.75 L108.75 215.55 L110.75 215.34 L112.75 215.14 L114.75 214.93 L116.75 214.71 L118.75 214.50 L120.75 214.27 L122.75 214.05 L124.75 213.82 L126.75 213.59 L128.75 213.36 L130.75 213.12 L132.75 212.88 L134.75 212.64 L136.75 212.39 L138.75 212.14 L140.75 211.89 L142.75 211.63 L144.75 211.37 L146.75 211.10 L148.75 210.83 L150.75 210.56 L152.75 210.28 L154.75 210.00 L156.75 209.72 L158.75 209.43 L160.75 209.14 L162.75 208.85 L164.75 208.55 L166.75 208.24 L168.75 207.94 L170.75 207.63 L172.75 207.31 L174.75 207.00 L176.75 206.67 L178.75 206.35 L180.75 206.02 L182.75 205.69 L184.75 205.35 L186.75 205.01 L188.75 204.66 L190.75 204.31 L192.75 203.96 L194.75 203.61 L196.75 203.25 L198.75 202.88 L200.75 202.51 L202.75 202.14 L204.75 201.77 L206.75 201.39 L208.75 201.01 L210.75 200.62 L212.75 200.23 L214.75 199.84 L216.75 199.44 L218.75 199.04 L220.75 198.63 L222.75 198.22 L224.75 197.81 L226.75 197.40 L228.75 196.98 L230.75 196.56 L232.75 196.13 L234.75 195.71 L236.75 195.27 L238.75 194.84 L240.75 194.40 L242.75 193.96 L244.75 193.52 L246.75 193.07 L248.75 192.62 L250.75 192.17 L252.75 191.71 L254.75 191.25 L256.75 190.79 L258.75 190.33 L260.75 189.87 L262.75 189.40 L264.75 188.93 L266.75 188.45 L268.75 187.98 L270.75 187.50 L272.75 187.02 L274.75 186.54 L276.75 186.06 L278.75 185.58 L280.75 185.09 L282.75 184.60 L284.75 184.11 L286.75 183.62 L288.75 183.13 L290.75 182.64 L292.75 182.14 L294.75 181.65 L296.75 181.15 L298.75 180.66 L300.75 180.16 L302.75 179.66 L304.75 179.16 L306.75 178.66 L308.75 178.16 L310.75 177.66 L312.75 177.16 L314.75 176.66 L316.75 176.16 L318.75 175.66 L320.75 175.16 L322.75 174.66 L324.75 174.17 L326.75 173.67 L328.75 173.17 L330.75 172.67 L332.75 172.18 L334.75 171.68 L336.75 171.19 L338.75 170.70 L340.75 170.20 L342.75 169.71 L344.75 169.23 L346.75 168.74 L348.75 168.25 L350.75 167.77 L352.75 167.29 L354.75 166.81 L356.75 166.33 L358.75 165.85 L360.75 165.38 L362.75 164.91 L364.75 164.44 L366.75 163.97 L368.75 163.50 L370.75 163.04 L372.75 162.58 L374.75 162.12 L376.75 161.67 L378.75 161.22 L380.75 160.77 L382.75 160.32 L384.75 159.88 L386.75 159.44 L388.75 159.00 L390.75 158.57 L392.75 158.14 L394.75 157.71 L396.75 157.29 L398.75 156.87 L400.75 156.45 L402.75 156.04 L404.75 155.62 L406.75 155.22 L408.75 154.81 L410.75 154.41 L412.75 154.02 L414.75 153.63 L416.75 153.24 L418.75 152.85 L420.75 152.47 L422.75 152.09 L424.75 151.72 L426.75 151.35 L428.75 150.98 L430.75 150.62 L432.75 150.26 L434.75 149.90 L436.75 149.55 L438.75 149.20 L440.75 148.86 L442.75 148.52 L444.75 148.18 L446.75 147.85 L448.75 147.52 L450.75 147.20 L452.75 146.88 L454.75 146.56 L456.75 146.25 L458.75 145.94 L460.75 145.63 L462.75 145.33 L464.75 145.03 L466.75 144.74 L468.75 144.45 L470.75 144.16 L472.75 143.88 L474.75 143.60 L476.75 143.33 L478.75 143.05 L480.75 142.79 L482.75 142.52 L484.75 142.26 L486.75 142.00 L488.75 141.75 L490.75 141.50 L492.75 141.25 L494.75 141.01 L496.75 140.77 L498.75 140.54 L500.75 140.30 L502.75 140.07 L504.75 139.85 L506.75 139.63 L508.75 139.41 L510.75 139.19 L512.75 138.98 L514.75 138.77 L516.75 138.56 L518.75 138.36 L520.75 138.16 L522.75 137.96 L524.75 137.77 L526.75 137.58 L528.75 137.39 L530.75 137.20 L532.75 137.02 L534.75 136.84 L536.75 136.67 L538.75 136.49 L540.75 136.32 L542.75 136.15 L544.75 135.99 L546.75 135.83 L548.75 135.67 L550.75 135.51 L552.75 135.35 L554.75 135.20 L556.75 135.05 L558.75 134.90 L560.75 134.76 L562.75 134.62 L564.75 134.48 L566.75 134.34 L568.75 134.20 L570.75 134.07 L572.75 133.94 L574.75 133.81 L576.75 133.69 L578.75 133.56 L580.75 133.44 L582.75 133.32 L584.75 133.20 L586.75 133.09 L588.75 132.97 L590.75 132.86 L592.75 132.75 L594.75 132.64 L596.75 132.54 L598.75 132.43 L600.75 132.33 L602.75 132.23 L604.75 132.13 L606.75 132.04 L608.75 131.94 L610.75 131.85 L612.75 131.76 L614.75 131.67 L616.75 131.58 L618.75 131.49 L620.75 131.40 L622.75 131.32 L624.75 131.24 L626.75 131.16 L628.75 131.08 L630.75 131.00 L632.75 130.92 L634.75 130.85 L636.75 130.78 L638.75 130.70 L640.75 130.63 L642.75 130.56 L644.75 130.49 L646.75 130.43 L648.75 130.36 " style="fill:none;stroke:#000000;stroke-width:1;" /></g></svg>